/* XPM */
static char *LOGO[]={
/* Self_CMSFrm */
"16 16 156 2",
"      c None",
" 0    c #519956",
" 1    c #589958",
" 2    c #589258",
" 3    c #418641",
" 4    c #3D8C41",
" 5    c #449344",
" 6    c #4C9B4C",
" 7    c #63A563",
" 8    c #438243",
" 9    c #397C39",
" a    c #3E863E",
" b    c #3F9243",
" c    c #469846",
" d    c #4BA24B",
" e    c #4FAB4F",
" f    c #5BAF5B",
" g    c #478247",
" h    c #346F34",
" i    c #387838",
" j    c #3C823C",
" k    c #408B40",
" l    c #429746",
" m    c #499E49",
" n    c #4DA74D",
" o    c #52B052",
" p    c #56BA56",
" q    c #59C159",
" r    c #69BF69",
" s    c #398041",
" t    c #2E7435",
" u    c #367536",
" v    c #3A7E3A",
" w    c #3E873E",
" x    c #409444",
" y    c #3FA14A",
" z    c #429C47",
" A    c #4DAA4E",
" B    c #54B554",
" C    c #58BF58",
" D    c #5DC85D",
" E    c #60D161",
" F    c #6ACC6A",
" G    c #3F7A3F",
" H    c #337335",
" I    c #33823B",
" J    c #398A40",
" K    c #3B9545",
" L    c #429946",
" M    c #408A40",
" N    c #3B843C",
" O    c #479C48",
" P    c #59C45A",
" Q    c #5ECE60",
" R    c #63D763",
" S    c #6CD16C",
" T    c #417E41",
" U    c #377637",
" V    c #3B7F3B",
" W    c #379345",
" X    c #3E9845",
" Y    c #459846",
" Z    c #3D853D",
" &    c #377A38",
"0     c #2F6E32",
"00    c #49A14A",
"01    c #61D361",
"02    c #66DC66",
"03    c #6ED56E",
"04    c #397B39",
"05    c #3D843D",
"06    c #3C9645",
"07    c #469746",
"08    c #419745",
"09    c #3B9043",
"0a    c #38833C",
"0b    c #327335",
"0c    c #2D612D",
"0d    c #4A9F4A",
"0e    c #64D864",
"0f    c #68E168",
"0g    c #70D970",
"0h    c #458545",
"0i    c #3B813B",
"0j    c #3E9A47",
"0k    c #459745",
"0l    c #388B40",
"0m    c #357B39",
"0n    c #2E6B31",
"0o    c #295829",
"0p    c #66DD66",
"0q    c #6BE76B",
"0r    c #72DD72",
"0s    c #478947",
"0t    c #428F42",
"0u    c #3DA14A",
"0v    c #3F9946",
"0w    c #3E893F",
"0x    c #38823B",
"0y    c #347034",
"0z    c #2B602C",
"0A    c #235226",
"0B    c #49A04A",
"0C    c #69E369",
"0D    c #6DEC6D",
"0E    c #74E174",
"0F    c #488C48",
"0G    c #3F8D41",
"0H    c #3F9A47",
"0I    c #44A44B",
"0J    c #41A34B",
"0K    c #3C8940",
"0L    c #347938",
"0M    c #2F662F",
"0N    c #2B612C",
"0O    c #449745",
"0P    c #64DC65",
"0Q    c #69E86B",
"0R    c #70F270",
"0S    c #77E577",
"0T    c #45974D",
"0U    c #3E9745",
"0V    c #479A47",
"0W    c #4BA34B",
"0X    c #50AC50",
"0Y    c #4EB352",
"0Z    c #3C9A46",
"0&    c #3D9042",
"1     c #5BC95C",
"10    c #65DB65",
"11    c #6AE46A",
"12    c #6EEE6E",
"13    c #71F772",
"14    c #77E677",
"15    c #569D56",
"16    c #4EA94E",
"17    c #52B152",
"18    c #57BB57",
"19    c #57C65B",
"1a    c #5FCD5F",
"1b    c #6CE96C",
"1c    c #6FF06F",
"1d    c #79DD79",
"1e    c #58AB58",
"1f    c #55B755",
"1g    c #59CB5D",
"1h    c #62D362",
"1i    c #6AE66A",
"1j    c #71DA71",
"1k    c #69AE69",
"1l    c #5DBE5D",
"1m    c #5CD060",
"1n    c #69D669",
"1o    c #76C476",
"1p    c #68C16D",
"1q    c #70C470",
"               0 1              ",
"           2 3 4 5 6 7          ",
"         8 9 a b c d e f        ",
"     g h i j k l m n o p q r    ",
"   s t u v w x y z A B C D E F  ",
"   G H I J K L l M N O P Q R S  ",
"   T U V W X Y b Z &0 00010203  ",
"   80405060708090a0b0c0d0e0f0g  ",
"  0h0i M0j0k b0l0m0n0o m0p0q0r  ",
"  0s a0t0u0v0w0x0y0z0A0B0C0D0E  ",
"  0F0G0H0I0J0K0L0M0N0O0P0Q0R0S  ",
"  0T0U0V0W0X0Y0Z0&1 1011121314  ",
"    15 m161718191a R0f1b1c1d    ",
"        1e1f q1g1h021i1j        ",
"          1k1l1m0e1n1o          ",
"              1p1q              "};

