/* XPM */
static char * exit_b_xpm[] = {
"16 16 103 2",
"  	g None",
". 	g #A5A5A5",
"+ 	g #A2A2A2",
"@ 	g #9F9F9F",
"# 	g #A7A7A7",
"$ 	g #B7B7B7",
"% 	g #969696",
"& 	g #9B9B9B",
"* 	g #808080",
"= 	g #7E7E7E",
"- 	g #7C7C7C",
"; 	g #7A7A7A",
"> 	g #777777",
", 	g #757575",
"' 	g #727272",
") 	g #A6A6A6",
"! 	g #B8B8B8",
"~ 	g #D5D5D5",
"{ 	g #D2D2D2",
"] 	g #949494",
"^ 	g #7D7D7D",
"/ 	g #999999",
"( 	g #9A9A9A",
"_ 	g #D3D3D3",
": 	g #C9C9C9",
"< 	g #C4C4C4",
"[ 	g #939393",
"} 	g #919191",
"| 	g #818181",
"1 	g #9C9C9C",
"2 	g #D0D0D0",
"3 	g #C0C0C0",
"4 	g #929292",
"5 	g #8C8C8C",
"6 	g #767676",
"7 	g #797979",
"8 	g #9D9D9D",
"9 	g #9E9E9E",
"0 	g #CDCDCD",
"a 	g #BCBCBC",
"b 	g #909090",
"c 	g #868686",
"d 	g #7F7F7F",
"e 	g #8E8E8E",
"f 	g #737373",
"g 	g #CACACA",
"h 	g #BBBBBB",
"i 	g #7B7B7B",
"j 	g #C3C3C3",
"k 	g #BDBDBD",
"l 	g #BABABA",
"m 	g #858585",
"n 	g #6C6C6C",
"o 	g #C6C6C6",
"p 	g #B3B3B3",
"q 	g #C5C5C5",
"r 	g #8D8D8D",
"s 	g #BEBEBE",
"t 	g #B0B0B0",
"u 	g #ACACAC",
"v 	g #AFAFAF",
"w 	g #C2C2C2",
"x 	g #B1B1B1",
"y 	g #8F8F8F",
"z 	g #B4B4B4",
"A 	g #AEAEAE",
"B 	g #656565",
"C 	g #A1A1A1",
"D 	g #8B8B8B",
"E 	g #ADADAD",
"F 	g #ABABAB",
"G 	g #8A8A8A",
"H 	g #707070",
"I 	g #6E6E6E",
"J 	g #6A6A6A",
"K 	g #666666",
"L 	g #626262",
"M 	g #636363",
"N 	g #A8A8A8",
"O 	g #A3A3A3",
"P 	g #A4A4A4",
"Q 	g #888888",
"R 	g #6B6B6B",
"S 	g #606060",
"T 	g #A0A0A0",
"U 	g #676767",
"V 	g #616161",
"W 	g #5C5C5C",
"X 	g #646464",
"Y 	g #585858",
"Z 	g #848484",
"` 	g #717171",
" .	g #545454",
"..	g #515151",
"+.	g #4F4F4F",
"@.	g #4C4C4C",
"#.	g #4A4A4A",
"$.	g #474747",
"%.	g #454545",
"&.	g #828282",
"*.	g #838383",
"=.	g #5D5D5D",
"-.	g #5E5E5E",
"                          . + @ ",
"                      # . $ % & ",
"    * = - ; > , ' ) # ! ~ { ] % ",
"    ^ / / ( ( & & . _ _ : < [ } ",
"    ; / | ( & 1 1 + 2 < 3 3 4 5 ",
"    > ( 6 7 1 8 8 9 0 3 a a b c ",
"d - 7 , } e f 9 9 ( g h $ $ e * ",
"i j 3 k l $ m n @ % o $ p q r ; ",
"> s p t u u v ^ f } w x h _ y , ",
"f l $ z t A - B C D s E F $ G H ",
"I J K L = i M C + m h N O P Q R ",
"    S T U V + + O * $ P @ C c U ",
"    W C X C O O P i p @ & 1 m M ",
"    Y + + O P P . 6 t t u ) Z S ",
"/ `  ...+.@.#.$.%.I ; &.G b *.=.",
"                        V -.L =."};
