/* XPM */
static char * note_edit_b_xpm[] = {
"24 24 86 1",
" 	g None",
".	g #DCDCDC",
"+	g #C9C9C9",
"@	g #F3F3F3",
"#	g #E9E9E9",
"$	g #DDDDDD",
"%	g #CCCCCC",
"&	g #E6E6E6",
"*	g #ECECEC",
"=	g #F4F4F4",
"-	g #E8E8E8",
";	g #DBDBDB",
">	g #CFCFCF",
",	g #C2C2C2",
"'	g #B6B6B6",
")	g #A5A5A5",
"!	g #5A5A5A",
"~	g #383838",
"{	g #C8C8C8",
"]	g #C3C3C3",
"^	g #C7C7C7",
"/	g #E5E5E5",
"(	g #DEDEDE",
"_	g #D2D2D2",
":	g #BDBDBD",
"<	g #B2B2B2",
"[	g #A4A4A4",
"}	g #C4C4C4",
"|	g #DADADA",
"1	g #C0C0C0",
"2	g #555555",
"3	g #F1F1F1",
"4	g #EDEDED",
"5	g #EAEAEA",
"6	g #E1E1E1",
"7	g #D7D7D7",
"8	g #D0D0D0",
"9	g #F2F2F2",
"0	g #E2E2E2",
"a	g #BFBFBF",
"b	g #A3A3A3",
"c	g #CBCBCB",
"d	g #F8F8F8",
"e	g #FCFCFC",
"f	g #FBFBFB",
"g	g #FDFDFD",
"h	g #FEFEFE",
"i	g #F6F6F6",
"j	g #D9D9D9",
"k	g #B5B5B5",
"l	g #989898",
"m	g #F7F7F7",
"n	g #F9F9F9",
"o	g #BEBEBE",
"p	g #C6C6C6",
"q	g #919191",
"r	g #F5F5F5",
"s	g #C5C5C5",
"t	g #B4B4B4",
"u	g #929292",
"v	g #9D9D9D",
"w	g #EFEFEF",
"x	g #AFAFAF",
"y	g #B9B9B9",
"z	g #BCBCBC",
"A	g #F0F0F0",
"B	g #E0E0E0",
"C	g #BBBBBB",
"D	g #B7B7B7",
"E	g #EBEBEB",
"F	g #E4E4E4",
"G	g #ADADAD",
"H	g #AAAAAA",
"I	g #CECECE",
"J	g #E7E7E7",
"K	g #9C9C9C",
"L	g #E3E3E3",
"M	g #D6D6D6",
"N	g #D5D5D5",
"O	g #D4D4D4",
"P	g #D3D3D3",
"Q	g #D8D8D8",
"R	g #B3B3B3",
"S	g #B1B1B1",
"T	g #B0B0B0",
"U	g #AEAEAE",
"        .+              ",
"       @#$%             ",
"     &*=-;>,')      !~  ",
"  {]^.&/(_{:<[}|$1 <{2  ",
"  (34&5*#/6.78590ab_c   ",
"  ;deffffeeghheija{kl   ",
"  ;=mmmmmmmmmmn3op'q    ",
"  ;@rrrrrrrrrmr+stu     ",
"  |3@@@@@@@@=@c}tv      ",
"  jw333333393%sxyz      ",
"  j4wwwwwwAA%sx'BC      ",
"  754444444%sxDE$y      ",
"  7#EEEEE4F^Gk4-;y      ",
"  7-####5/HIy#E/;D      ",
"  7&JJJJ-.K0#-JL;D      ",
"  MLFFFFF/4&FFF6;'      ",
"  N0L000000000LB|k      ",
"  OB66666666666(jt      ",
"  P$(((((((((((.QR      ",
"  P.$$$$$$$$$$$;Q<      ",
"  _Qj||;;;;;;;;j7<      ",
"  8888__PONNMMMNMS      ",
"  88888>>>>>>888MT      ",
"            >>>>NU      "};
