/* XPM */
static char * note_edit_xpm[] = {
"24 24 254 2",
"  	c None",
". 	c #DDDCDC",
"+ 	c #CAC9C9",
"@ 	c #F3F3F2",
"# 	c #E9E9E8",
"$ 	c #DEDDDD",
"% 	c #CDCCCC",
"& 	c #E5E6E9",
"* 	c #ECECEB",
"= 	c #F4F4F3",
"- 	c #E9E8E8",
"; 	c #DBDBDA",
"> 	c #D0CFCE",
", 	c #C3C2C2",
"' 	c #B7B6B5",
") 	c #A5A5A8",
"! 	c #A74640",
"~ 	c #AB1A12",
"{ 	c #E0C882",
"] 	c #DDC377",
"^ 	c #D8C798",
"/ 	c #DCDCE0",
"( 	c #E6E6E5",
"_ 	c #E6E5E5",
": 	c #DEDEDD",
"< 	c #D3D2D2",
"[ 	c #C8C8C7",
"} 	c #BDBDBC",
"| 	c #B3B2B2",
"1 	c #A4A4A7",
"2 	c #D5C58D",
"3 	c #F1DB8C",
"4 	c #F2DE94",
"5 	c #D5BF8A",
"6 	c #AEB3B6",
"7 	c #C5C8D1",
"8 	c #A4403C",
"9 	c #F4DF94",
"0 	c #FBF2CF",
"a 	c #F0EDE0",
"b 	c #E6E6E8",
"c 	c #EBEAEB",
"d 	c #ECECEC",
"e 	c #EAE9EA",
"f 	c #E6E5E6",
"g 	c #E1E1E1",
"h 	c #DCDCDC",
"i 	c #D8D7D7",
"j 	c #D0D0D1",
"k 	c #EDEADF",
"l 	c #FAF2D7",
"m 	c #F6E398",
"n 	c #D6BD8C",
"o 	c #D49A6C",
"p 	c #DAD1C8",
"q 	c #B4D0DE",
"r 	c #F0DC92",
"s 	c #F8F8F4",
"t 	c #FAFCFF",
"u 	c #FAFBFC",
"v 	c #FBFCFD",
"w 	c #FCFDFE",
"x 	c #FDFEFF",
"y 	c #FBFCFF",
"z 	c #F8F6EB",
"A 	c #F0DA8F",
"B 	c #E8B887",
"C 	c #F2C097",
"D 	c #F0AA75",
"E 	c #B1947B",
"F 	c #EFDC92",
"G 	c #F5F4EE",
"H 	c #F6F7FA",
"I 	c #F6F7F8",
"J 	c #F7F9FD",
"K 	c #F4F1E5",
"L 	c #EAB87B",
"M 	c #EFBF98",
"N 	c #EFAB78",
"O 	c #D68448",
"P 	c #EFDC93",
"Q 	c #F4F3ED",
"R 	c #F4F5F9",
"S 	c #F4F5F7",
"T 	c #F4F7F9",
"U 	c #F3F5F8",
"V 	c #EBC3A4",
"W 	c #EFBD94",
"X 	c #F0A874",
"Y 	c #DE8442",
"Z 	c #EFDB93",
"` 	c #F1F1EC",
" .	c #F1F3F7",
"..	c #F1F3F5",
"+.	c #F1F4F7",
"@.	c #F0F4F8",
"#.	c #EAC5A9",
"$.	c #EFBC91",
"%.	c #F0A875",
"&.	c #D69357",
"*.	c #EFDA92",
"=.	c #EFEFEA",
"-.	c #EFF1F5",
";.	c #EFF1F3",
">.	c #EFF2F5",
",.	c #EEF2F6",
"'.	c #EAC6AB",
").	c #EFBD92",
"!.	c #EDA36E",
"~.	c #EEB16B",
"{.	c #CDBB8D",
"].	c #EDEDE9",
"^.	c #EDEFF3",
"/.	c #EDEFF1",
"(.	c #EDF0F2",
"_.	c #ECF1F5",
":.	c #E9C7AC",
"<.	c #EEA36D",
"[.	c #E9AD79",
"}.	c #F3E199",
"|.	c #CEBA8E",
"1.	c #EDD893",
"2.	c #EAEBE7",
"3.	c #EAEDF0",
"4.	c #EAEDEF",
"5.	c #EAEEF1",
"6.	c #E7C7AE",
"7.	c #EEA36B",
"8.	c #E7AE86",
"9.	c #EBECE2",
"0.	c #F2DE96",
"a.	c #CDB88C",
"b.	c #E8E9E6",
"c.	c #E8EBEF",
"d.	c #E8EBEE",
"e.	c #E9EEF2",
"f.	c #EEE2D9",
"g.	c #EDC097",
"h.	c #EEA167",
"i.	c #E6AC82",
"j.	c #E7EEF5",
"k.	c #E9E9DF",
"l.	c #F2DC94",
"m.	c #CCB88D",
"n.	c #EDD792",
"o.	c #E7E8E5",
"p.	c #E6EAED",
"q.	c #E6EAEC",
"r.	c #E6EBED",
"s.	c #E1E6EA",
"t.	c #B8A899",
"u.	c #F3C8A3",
"v.	c #E4B18D",
"w.	c #E4EAED",
"x.	c #E6ECF1",
"y.	c #E7E6DB",
"z.	c #F2DC93",
"A.	c #CAB68D",
"B.	c #E4E7E3",
"C.	c #E3E8EB",
"D.	c #E3E8EA",
"E.	c #E4E9EC",
"F.	c #D9DDDF",
"G.	c #9E9C9A",
"H.	c #E5E1DD",
"I.	c #E2EBF0",
"J.	c #E3E9EC",
"K.	c #E3E8EC",
"L.	c #E5E4D9",
"M.	c #ECD693",
"N.	c #E1E4E2",
"O.	c #E0E5E9",
"P.	c #E0E5E8",
"Q.	c #E1E6E8",
"R.	c #E8EEF1",
"S.	c #E0E7EB",
"T.	c #E0E5EB",
"U.	c #E2E2D7",
"V.	c #F2DB93",
"W.	c #C9B58D",
"X.	c #EAD593",
"Y.	c #E0E2E1",
"Z.	c #DFE3E8",
"`.	c #DFE3E7",
" +	c #DFE3EA",
".+	c #E1E0D7",
"++	c #F0DA93",
"@+	c #C7B38D",
"#+	c #EAD492",
"$+	c #DDE1DE",
"%+	c #DCE2E5",
"&+	c #DCE2E4",
"*+	c #DCE2E6",
"=+	c #DFDFD4",
"-+	c #F1D992",
";+	c #C6B28D",
">+	c #EAD392",
",+	c #DADEDE",
"'+	c #D9DFE4",
")+	c #D9DFE3",
"!+	c #D8DFE5",
"~+	c #DCDDD3",
"{+	c #F1D892",
"]+	c #C5B28D",
"^+	c #EAD393",
"/+	c #D8DDDF",
"(+	c #D7DEE5",
"_+	c #D7DEE3",
":+	c #D7DEE2",
"<+	c #D8DEE2",
"[+	c #D7DEE4",
"}+	c #DBDCD2",
"|+	c #C4B18D",
"1+	c #E9D291",
"2+	c #DAD9CF",
"3+	c #D7DAD8",
"4+	c #D7DBDA",
"5+	c #D6DBDE",
"6+	c #D5DCE1",
"7+	c #D4DCE3",
"8+	c #D4DCE4",
"9+	c #D4DCE5",
"0+	c #D3DCE6",
"a+	c #D9DAD3",
"b+	c #F0D792",
"c+	c #C3B08D",
"d+	c #E9D08C",
"e+	c #E8D08F",
"f+	c #E8D090",
"g+	c #E7D093",
"h+	c #E6D299",
"i+	c #E4D29F",
"j+	c #E2D3A7",
"k+	c #E0D4AF",
"l+	c #DED5B6",
"m+	c #DDD5BA",
"n+	c #DCD6BF",
"o+	c #DBD6C2",
"p+	c #D9D7C8",
"q+	c #DBD6BF",
"r+	c #EFD691",
"s+	c #C2AF8C",
"t+	c #E9CF8C",
"u+	c #E9CF8B",
"v+	c #E9CF8A",
"w+	c #EACF89",
"x+	c #EACE88",
"y+	c #EACE87",
"z+	c #EACF88",
"A+	c #EFD693",
"B+	c #C1AE8D",
"C+	c #E9CE8C",
"D+	c #EFD491",
"E+	c #C0AC89",
"                . +                             ",
"              @ # $ %                           ",
"          & * = - ; > , ' )             ! ~     ",
"    { ] ^ / ( _ : < [ } | 1 2 3 4 5   6 7 8     ",
"    9 0 a b c d e f g h i j k l m n o p q       ",
"    r s t u u u u v v w x x y z A B C D E       ",
"    F G H I I I I I I I I I J K L M N O         ",
"    P Q R S S S S S S S S T U V W X Y           ",
"    Z `  ...............+.@.#.$.%.&.            ",
"    *.=.-.;.;.;.;.;.;.>.,.'.).!.~.{.            ",
"    *.].^./././././.(._.:.).<.[.}.|.            ",
"    1.2.3.4.4.4.4.4.5.6.).7.8.9.0.a.            ",
"    1.b.c.d.d.d.d.e.f.g.h.i.j.k.l.m.            ",
"    n.o.p.q.q.q.r.s.t.u.v.w.x.y.z.A.            ",
"    n.B.C.D.D.D.E.F.G.H.I.J.K.L.z.A.            ",
"    M.N.O.P.P.P.P.Q.R.S.P.P.T.U.V.W.            ",
"    X.Y.Z.`.`.`.`.`.`.`.`.`. +.+++@+            ",
"    #+$+%+&+&+&+&+&+&+&+&+&+*+=+-+;+            ",
"    >+,+'+)+)+)+)+)+)+)+)+)+!+~+{+]+            ",
"    ^+/+(+_+:+:+:+<+<+<+<+<+[+}+{+|+            ",
"    1+2+3+4+5+6+7+8+9+8+8+8+0+a+b+c+            ",
"    d+e+f+g+h+i+j+k+l+m+n+o+p+q+r+s+            ",
"    t+u+u+v+w+x+x+y+y+y+x+z+w+v+A+B+            ",
"                        C+C+C+C+D+E+            "};
